# xmcd
#
# Track frame offsets:
# 150
# 9843
# 23921
# 36264
# 48953
#
# Disc length: 921 seconds
#
# Revision: 0
# Processed by: cddbd v1.4PL0 Copyright (c) Steve Scherf et al.
# Submitted via: Audion 3.0.2 (http://www.panic.com/audion/)
#
DISCID=2f039705
DTITLE=Uinona - Uinona
DYEAR=1900
DGENRE=
TTITLE0=Winner
TTITLE1=Meaningless World
TTITLE2=Again
TTITLE3=I saw the light
TTITLE4=The air that we breathe
EXTD=
EXTT0=
EXTT1=
EXTT2=
EXTT3=
EXTT4=
PLAYORDER=
